<svg width="367" height="153" viewBox="0 0 367 153" fill="none" xmlns="http://www.w3.org/2000/svg">
<mask id="path-1-outside-1_6382_4005" maskUnits="userSpaceOnUse" x="0.123047" y="6.11133" width="363" height="147" fill="black">
<rect fill="white" x="0.123047" y="6.11133" width="363" height="147"/>
<path fill-rule="evenodd" clip-rule="evenodd" d="M249.444 76.1699C248.215 54.5916 248.412 27.7074 250.929 22.8171C257.513 10.0229 275.698 15.4003 275.698 21.2007C275.46 40.5548 275.274 51.3262 271.861 65.7447C274.78 69.7487 287.376 66.7457 288.127 62.5749C287.641 45.3921 288.225 20.4151 290.463 17.5304C297.343 8.66021 307.559 9.72923 310.9 16.1954C313.43 21.0926 312.119 32.618 310.268 48.8826L310.268 48.8839L310.268 48.8882C309.934 51.8258 309.582 54.918 309.232 58.1536C316.383 61.1208 319.623 65.5777 319.623 73.1396C319.623 79.3413 312.986 84.0552 308.115 84.0552L308.769 127.277C308.769 133.145 286.877 135.443 284.817 131.85L286.877 88.6838C281.3 92.8839 277.991 94.8062 270.527 94.6064V133.145C268.442 141.403 250.507 143.989 246.67 140.151L247.8 101.692C234.215 102.368 229.615 96.5029 228.418 93.2717C227.655 91.2142 227.556 88.7548 228.418 86.4773C229.604 83.3452 238.377 76.1699 249.444 76.1699ZM220.4 58.2425C224.537 62.0922 227.6 72.3526 225.593 74.1913C212.788 74.5669 206.423 75.9312 200.374 88.4344C194.525 100.524 197.62 124.252 205.044 124.252C211.551 124.252 215.113 119.388 219.888 112.869L219.888 112.868L219.889 112.866L219.89 112.866C220.685 111.78 221.513 110.65 222.394 109.487C227.733 109.487 237.075 117.329 237.075 122C233.488 142.353 200.802 151.354 190.362 141.513C177.98 129.84 175.795 107.297 179.769 81.9263C183.047 61.0066 216.735 54.8358 220.4 58.2425ZM70.3283 65.862C78.6122 56.7699 80.7942 50.762 82.1281 39.117C59.7086 29.6781 39.7733 32.543 22.7361 47.3761C11.831 56.8694 3.93901 78.9094 5.26941 107.149C6.06213 123.976 25.3997 147.1 51.8051 137.036C61.1457 133.476 77.4154 116.712 77.4154 93.5272C77.4154 88.4122 51.6597 74.701 42.1598 75.6804C36.9223 80.0167 35.3354 83.7852 35.0104 92.1828C42.5034 98.0898 46.5358 100.553 53.3112 103.365C53.3112 112.291 43.7184 118.38 38.2964 118.38C23.6986 118.38 23.517 99.7936 25.2835 82.3444C27.284 62.5831 53.3112 57.1528 70.3283 65.862ZM335.515 65.0337C338.605 65.53 341.314 65.3243 341.314 61.2767C341.314 60.5179 340.302 59.4473 339.091 58.1659C337.286 56.2562 335.039 53.8784 335.039 51.3667C335.039 45.9049 336.735 42.5935 341.314 41.3917C347.257 39.8319 350.609 47.8412 347.76 49.8707C344.708 52.0444 344.093 49.9886 343.769 48.9097C343.663 48.5549 343.589 48.3057 343.469 48.3473C341.865 48.9073 340.76 52.9723 341.314 54.7255C342.119 57.2768 349.069 59.2117 354.05 58.1397C357.535 57.3893 359.536 45.7725 357.535 40.2826C354.8 32.7769 348.595 27.1611 339.813 28.7496C333.74 29.8479 326.644 39.4059 325.578 43.5583C324.51 47.7214 326.109 63.5231 335.515 65.0337ZM350.032 73.0949C344.097 68.7841 329.326 73.7834 329.075 80.884C328.916 85.3973 328.224 93.3932 327.458 102.253L327.458 102.254L327.458 102.255C325.89 120.393 324.009 142.148 325.737 145.052C330.957 153.822 346.824 143.678 350.032 136.15C350.621 134.768 352.795 75.1023 350.032 73.0949ZM126.999 146.949C169.332 146.949 169.332 123.886 169.332 96.5432C169.332 65.7565 158.129 43.3262 133.001 43.3262C107.873 43.3262 90.4895 70.1423 83.7175 96.5433C76.271 125.574 101.871 146.949 126.999 146.949ZM149.727 71.1207C147.688 63.6101 115.173 66.0142 106.516 69.6369C102.41 71.3545 102.96 94.0143 106.515 103.388C107.931 107.122 145.569 109.08 149.727 103.388C153.251 98.5665 150.98 75.734 149.727 71.1207ZM117.169 121.69C117.169 125.849 113.223 129.221 108.356 129.221C103.488 129.221 99.5419 125.849 99.5419 121.69C99.5419 117.53 103.488 114.158 108.356 114.158C113.223 114.158 117.169 117.53 117.169 121.69ZM126.333 135.149C130.375 135.149 133.651 131.628 133.651 127.285C133.651 122.941 130.375 119.42 126.333 119.42C122.291 119.42 119.015 122.941 119.015 127.285C119.015 131.628 122.291 135.149 126.333 135.149ZM153.689 125.898C153.689 129.475 150.457 132.376 146.471 132.376C142.485 132.376 139.254 129.475 139.254 125.898C139.254 122.32 142.485 119.42 146.471 119.42C150.457 119.42 153.689 122.32 153.689 125.898Z"/>
</mask>
<path fill-rule="evenodd" clip-rule="evenodd" d="M249.444 76.1699C248.215 54.5916 248.412 27.7074 250.929 22.8171C257.513 10.0229 275.698 15.4003 275.698 21.2007C275.46 40.5548 275.274 51.3262 271.861 65.7447C274.78 69.7487 287.376 66.7457 288.127 62.5749C287.641 45.3921 288.225 20.4151 290.463 17.5304C297.343 8.66021 307.559 9.72923 310.9 16.1954C313.43 21.0926 312.119 32.618 310.268 48.8826L310.268 48.8839L310.268 48.8882C309.934 51.8258 309.582 54.918 309.232 58.1536C316.383 61.1208 319.623 65.5777 319.623 73.1396C319.623 79.3413 312.986 84.0552 308.115 84.0552L308.769 127.277C308.769 133.145 286.877 135.443 284.817 131.85L286.877 88.6838C281.3 92.8839 277.991 94.8062 270.527 94.6064V133.145C268.442 141.403 250.507 143.989 246.67 140.151L247.8 101.692C234.215 102.368 229.615 96.5029 228.418 93.2717C227.655 91.2142 227.556 88.7548 228.418 86.4773C229.604 83.3452 238.377 76.1699 249.444 76.1699ZM220.4 58.2425C224.537 62.0922 227.6 72.3526 225.593 74.1913C212.788 74.5669 206.423 75.9312 200.374 88.4344C194.525 100.524 197.62 124.252 205.044 124.252C211.551 124.252 215.113 119.388 219.888 112.869L219.888 112.868L219.889 112.866L219.89 112.866C220.685 111.78 221.513 110.65 222.394 109.487C227.733 109.487 237.075 117.329 237.075 122C233.488 142.353 200.802 151.354 190.362 141.513C177.98 129.84 175.795 107.297 179.769 81.9263C183.047 61.0066 216.735 54.8358 220.4 58.2425ZM70.3283 65.862C78.6122 56.7699 80.7942 50.762 82.1281 39.117C59.7086 29.6781 39.7733 32.543 22.7361 47.3761C11.831 56.8694 3.93901 78.9094 5.26941 107.149C6.06213 123.976 25.3997 147.1 51.8051 137.036C61.1457 133.476 77.4154 116.712 77.4154 93.5272C77.4154 88.4122 51.6597 74.701 42.1598 75.6804C36.9223 80.0167 35.3354 83.7852 35.0104 92.1828C42.5034 98.0898 46.5358 100.553 53.3112 103.365C53.3112 112.291 43.7184 118.38 38.2964 118.38C23.6986 118.38 23.517 99.7936 25.2835 82.3444C27.284 62.5831 53.3112 57.1528 70.3283 65.862ZM335.515 65.0337C338.605 65.53 341.314 65.3243 341.314 61.2767C341.314 60.5179 340.302 59.4473 339.091 58.1659C337.286 56.2562 335.039 53.8784 335.039 51.3667C335.039 45.9049 336.735 42.5935 341.314 41.3917C347.257 39.8319 350.609 47.8412 347.76 49.8707C344.708 52.0444 344.093 49.9886 343.769 48.9097C343.663 48.5549 343.589 48.3057 343.469 48.3473C341.865 48.9073 340.76 52.9723 341.314 54.7255C342.119 57.2768 349.069 59.2117 354.05 58.1397C357.535 57.3893 359.536 45.7725 357.535 40.2826C354.8 32.7769 348.595 27.1611 339.813 28.7496C333.74 29.8479 326.644 39.4059 325.578 43.5583C324.51 47.7214 326.109 63.5231 335.515 65.0337ZM350.032 73.0949C344.097 68.7841 329.326 73.7834 329.075 80.884C328.916 85.3973 328.224 93.3932 327.458 102.253L327.458 102.254L327.458 102.255C325.89 120.393 324.009 142.148 325.737 145.052C330.957 153.822 346.824 143.678 350.032 136.15C350.621 134.768 352.795 75.1023 350.032 73.0949ZM126.999 146.949C169.332 146.949 169.332 123.886 169.332 96.5432C169.332 65.7565 158.129 43.3262 133.001 43.3262C107.873 43.3262 90.4895 70.1423 83.7175 96.5433C76.271 125.574 101.871 146.949 126.999 146.949ZM149.727 71.1207C147.688 63.6101 115.173 66.0142 106.516 69.6369C102.41 71.3545 102.96 94.0143 106.515 103.388C107.931 107.122 145.569 109.08 149.727 103.388C153.251 98.5665 150.98 75.734 149.727 71.1207ZM117.169 121.69C117.169 125.849 113.223 129.221 108.356 129.221C103.488 129.221 99.5419 125.849 99.5419 121.69C99.5419 117.53 103.488 114.158 108.356 114.158C113.223 114.158 117.169 117.53 117.169 121.69ZM126.333 135.149C130.375 135.149 133.651 131.628 133.651 127.285C133.651 122.941 130.375 119.42 126.333 119.42C122.291 119.42 119.015 122.941 119.015 127.285C119.015 131.628 122.291 135.149 126.333 135.149ZM153.689 125.898C153.689 129.475 150.457 132.376 146.471 132.376C142.485 132.376 139.254 129.475 139.254 125.898C139.254 122.32 142.485 119.42 146.471 119.42C150.457 119.42 153.689 122.32 153.689 125.898Z" fill="#CADA9B"/>
<path d="M250.929 22.8171L254.676 24.7456L254.676 24.7456L250.929 22.8171ZM249.444 76.1699V80.3843H253.905L253.652 75.9302L249.444 76.1699ZM275.698 21.2007L279.912 21.2525L279.912 21.2266V21.2007H275.698ZM271.861 65.7447L267.76 64.7741L267.313 66.661L268.456 68.2277L271.861 65.7447ZM288.127 62.5749L292.275 63.3215L292.352 62.892L292.34 62.4557L288.127 62.5749ZM290.463 17.5304L293.793 20.1135V20.1135L290.463 17.5304ZM310.9 16.1954L314.644 14.261L314.644 14.2609L310.9 16.1954ZM310.268 48.8826L314.441 49.4787L314.449 49.4189L314.456 49.359L310.268 48.8826ZM310.268 48.8839L306.096 48.2879L306.086 48.3601L306.078 48.4326L310.268 48.8839ZM310.268 48.8882L314.455 49.3646L314.457 49.3521L314.458 49.3395L310.268 48.8882ZM309.232 58.1536L305.042 57.7006L304.703 60.8372L307.617 62.0463L309.232 58.1536ZM308.115 84.0552V79.8408H303.837L303.901 84.1189L308.115 84.0552ZM308.769 127.277H312.983V127.245L312.983 127.214L308.769 127.277ZM284.817 131.85L280.607 131.649L280.549 132.878L281.161 133.946L284.817 131.85ZM286.877 88.6838L291.086 88.8847L291.514 79.9149L284.341 85.3174L286.877 88.6838ZM270.527 94.6064L270.64 90.3935L266.313 90.2776V94.6064H270.527ZM270.527 133.145L274.613 134.176L274.742 133.668V133.145H270.527ZM246.67 140.151L242.458 140.028L242.404 141.845L243.69 143.131L246.67 140.151ZM247.8 101.692L252.013 101.816L252.147 97.2566L247.591 97.4832L247.8 101.692ZM228.418 93.2717L224.466 94.7362V94.7362L228.418 93.2717ZM228.418 86.4773L224.477 84.985L224.476 84.9851L228.418 86.4773ZM225.593 74.1913L225.716 78.4039L227.284 78.3579L228.44 77.2988L225.593 74.1913ZM220.4 58.2425L223.271 55.1571L223.269 55.1557L220.4 58.2425ZM200.374 88.4344L196.58 86.599V86.599L200.374 88.4344ZM219.888 112.869L223.288 115.359L223.296 115.347L219.888 112.869ZM219.888 112.868L223.297 115.346L223.309 115.329L223.322 115.312L219.888 112.868ZM219.889 112.866L216.46 110.417L216.456 110.422L219.889 112.866ZM219.89 112.866L216.49 110.375L216.475 110.396L216.46 110.416L219.89 112.866ZM222.394 109.487V105.273H220.301L219.036 106.941L222.394 109.487ZM237.075 122L241.226 122.731L241.29 122.368V122H237.075ZM190.362 141.513L193.253 138.446L190.362 141.513ZM179.769 81.9263L175.605 81.2739L175.605 81.274L179.769 81.9263ZM82.1281 39.117L86.3151 39.5966L86.6746 36.4584L83.7634 35.2327L82.1281 39.117ZM70.3283 65.862L68.4083 69.6136L71.2748 71.0807L73.4436 68.7004L70.3283 65.862ZM22.7361 47.3761L25.5033 50.5548L25.5034 50.5547L22.7361 47.3761ZM5.26941 107.149L9.47915 106.951L5.26941 107.149ZM51.8051 137.036L53.3061 140.974H53.3061L51.8051 137.036ZM42.1598 75.6804L41.7276 71.4882L40.4564 71.6192L39.4721 72.4342L42.1598 75.6804ZM35.0104 92.1828L30.7991 92.0198L30.7161 94.1639L32.4012 95.4924L35.0104 92.1828ZM53.3112 103.365H57.5257V100.551L54.9267 99.4727L53.3112 103.365ZM25.2835 82.3444L29.4765 82.7689L25.2835 82.3444ZM335.515 65.0337L334.847 69.1948L335.515 65.0337ZM339.091 58.1659L342.154 55.2711V55.2711L339.091 58.1659ZM341.314 41.3917L340.244 37.3154V37.3154L341.314 41.3917ZM347.76 49.8707L345.314 46.4382V46.4382L347.76 49.8707ZM343.769 48.9097L339.732 50.1187L339.732 50.1189L343.769 48.9097ZM343.469 48.3473L344.858 52.3262L344.858 52.3262L343.469 48.3473ZM341.314 54.7255L337.294 55.9936L337.294 55.9937L341.314 54.7255ZM354.05 58.1397L353.163 54.0196L354.05 58.1397ZM357.535 40.2826L361.495 38.8396V38.8395L357.535 40.2826ZM339.813 28.7496L339.063 24.6025L339.813 28.7496ZM325.578 43.5583L321.496 42.5106V42.5106L325.578 43.5583ZM329.075 80.884L324.863 80.7351V80.7351L329.075 80.884ZM350.032 73.0949L352.508 69.6851L352.508 69.6851L350.032 73.0949ZM327.458 102.253L323.26 101.89L323.255 101.946L323.251 102.002L327.458 102.253ZM327.458 102.254L331.642 102.761L331.658 102.634L331.665 102.505L327.458 102.254ZM327.458 102.255L323.274 101.748L323.266 101.82L323.259 101.892L327.458 102.255ZM325.737 145.052L322.115 147.207L322.115 147.207L325.737 145.052ZM350.032 136.15L353.909 137.802V137.802L350.032 136.15ZM83.7175 96.5433L87.7997 97.5905L83.7175 96.5433ZM106.516 69.6369L108.142 73.5248L108.142 73.5247L106.516 69.6369ZM149.727 71.1207L153.795 70.0164V70.0164L149.727 71.1207ZM106.515 103.388L102.575 104.883L106.515 103.388ZM149.727 103.388L146.325 100.902L149.727 103.388ZM247.182 20.8886C246.585 22.0487 246.217 23.4853 245.956 24.8187C245.678 26.2404 245.453 27.9179 245.269 29.7643C244.9 33.4625 244.675 38.0769 244.568 43.1472C244.355 53.2995 244.616 65.5254 245.237 76.4096L253.652 75.9302C253.042 65.2361 252.788 53.2307 252.995 43.3239C253.099 38.3646 253.318 33.9923 253.656 30.6C253.825 28.9011 254.019 27.5074 254.228 26.4385C254.332 25.9059 254.434 25.491 254.525 25.1816C254.622 24.8559 254.682 24.7348 254.676 24.7456L247.182 20.8886ZM279.912 21.2007C279.912 17.5189 277.179 14.9909 274.973 13.6244C272.535 12.1135 269.404 11.1224 266.15 10.8376C259.607 10.2647 251.476 12.545 247.182 20.8886L254.676 24.7456C256.967 20.295 261.22 18.8669 265.415 19.2343C267.531 19.4195 269.358 20.0607 270.534 20.7896C271.944 21.6629 271.484 21.9823 271.484 21.2007H279.912ZM275.962 66.7154C279.496 51.7837 279.674 40.5717 279.912 21.2525L271.484 21.1488C271.245 40.5378 271.051 50.8687 267.76 64.7741L275.962 66.7154ZM283.979 61.8283C284.124 61.0257 284.547 61.1527 283.499 61.7865C282.656 62.2962 281.383 62.7924 279.926 63.1041C278.468 63.416 277.099 63.4844 276.092 63.3486C274.957 63.1954 275.004 62.9019 275.266 63.2617L268.456 68.2277C270.178 70.5895 272.894 71.4222 274.965 71.7017C277.165 71.9986 279.539 71.8063 281.689 71.3466C283.839 70.8867 286.039 70.1004 287.86 68.9992C289.476 68.0219 291.755 66.2096 292.275 63.3215L283.979 61.8283ZM287.133 14.9472C286.225 16.1176 285.818 17.6685 285.594 18.6412C285.316 19.8423 285.09 21.2884 284.901 22.8672C284.52 26.0395 284.247 30.0924 284.063 34.5153C283.693 43.3784 283.669 54.0175 283.914 62.6941L292.34 62.4557C292.099 53.9495 292.124 43.5087 292.484 34.8665C292.665 30.5367 292.927 26.7305 293.27 23.8713C293.442 22.4344 293.625 21.3216 293.806 20.5375C294.04 19.525 294.141 19.6643 293.793 20.1135L287.133 14.9472ZM314.644 14.2609C312.165 9.46372 307.214 6.85203 301.972 6.8975C296.689 6.94334 291.258 9.6287 287.133 14.9472L293.793 20.1135C296.548 16.5619 299.665 15.3467 302.045 15.326C304.466 15.305 306.293 16.4609 307.155 18.13L314.644 14.2609ZM314.456 49.359C315.375 41.2812 316.186 34.167 316.437 28.4612C316.563 25.5984 316.554 22.9658 316.322 20.6589C316.093 18.3949 315.624 16.1584 314.644 14.261L307.155 18.1299C307.44 18.681 307.756 19.7217 307.935 21.5044C308.111 23.244 308.133 25.4276 308.016 28.0913C307.781 33.4386 307.012 40.2195 306.081 48.4063L314.456 49.359ZM314.44 49.4799L314.441 49.4787L306.096 48.2866L306.096 48.2879L314.44 49.4799ZM314.458 49.3395L314.458 49.3353L306.078 48.4326L306.078 48.4368L314.458 49.3395ZM313.422 58.6066C313.77 55.3844 314.121 52.3035 314.455 49.3646L306.08 48.4118C305.746 51.3481 305.393 54.4516 305.042 57.7006L313.422 58.6066ZM323.837 73.1396C323.837 68.7447 322.888 64.8251 320.56 61.5044C318.252 58.2113 314.888 55.9374 310.847 54.261L307.617 62.0463C310.728 63.3371 312.559 64.7751 313.658 66.3428C314.738 67.8828 315.408 69.9726 315.408 73.1396H323.837ZM308.115 88.2696C311.763 88.2696 315.582 86.5834 318.446 84.1161C321.352 81.6133 323.837 77.8061 323.837 73.1396H315.408C315.408 74.6748 314.576 76.3254 312.945 77.7299C311.273 79.1701 309.339 79.8408 308.115 79.8408V88.2696ZM312.983 127.214L312.329 83.9915L303.901 84.1189L304.555 127.341L312.983 127.214ZM281.161 133.946C282.207 135.771 284.022 136.557 285.085 136.917C286.324 137.337 287.718 137.561 289.073 137.676C291.81 137.907 295.076 137.746 298.19 137.279C301.277 136.816 304.521 136.008 307.115 134.783C308.405 134.174 309.757 133.359 310.84 132.25C311.951 131.111 312.983 129.433 312.983 127.277H304.554C304.554 126.588 304.902 126.266 304.808 126.362C304.686 126.487 304.311 126.786 303.516 127.161C301.942 127.905 299.584 128.547 296.94 128.943C294.324 129.335 291.73 129.441 289.783 129.277C288.796 129.193 288.142 129.053 287.789 128.934C287.262 128.755 287.942 128.827 288.473 129.754L281.161 133.946ZM282.667 88.483L280.607 131.649L289.026 132.051L291.086 88.8847L282.667 88.483ZM270.414 98.8193C274.553 98.9301 277.847 98.4562 280.972 97.2093C283.998 96.0016 286.609 94.1617 289.412 92.0503L284.341 85.3174C281.568 87.4061 279.736 88.6273 277.848 89.3808C276.057 90.0952 273.965 90.4825 270.64 90.3935L270.414 98.8193ZM274.742 133.145V94.6064H266.313V133.145H274.742ZM243.69 143.131C245.775 145.216 248.945 145.855 251.41 146.039C254.139 146.243 257.232 145.972 260.198 145.291C263.155 144.613 266.217 143.474 268.782 141.779C271.323 140.101 273.743 137.622 274.613 134.176L266.441 132.113C266.268 132.796 265.665 133.737 264.137 134.746C262.633 135.74 260.58 136.556 258.313 137.076C256.055 137.594 253.815 137.767 252.037 137.634C249.995 137.482 249.484 137.005 249.65 137.171L243.69 143.131ZM243.588 101.569L242.458 140.028L250.883 140.275L252.013 101.816L243.588 101.569ZM224.466 94.7362C225.38 97.2025 227.436 100.262 231.307 102.568C235.175 104.872 240.591 106.271 248.01 105.902L247.591 97.4832C241.425 97.7899 237.748 96.5938 235.62 95.3264C233.496 94.061 232.653 92.5722 232.37 91.8072L224.466 94.7362ZM224.476 84.9851C223.224 88.2933 223.38 91.8062 224.466 94.7362L232.37 91.8072C231.93 90.6222 231.887 89.2163 232.359 87.9696L224.476 84.9851ZM249.444 71.9555C243.011 71.9555 237.322 74.0332 233.093 76.514C230.972 77.7582 229.151 79.1427 227.732 80.5018C226.415 81.7635 225.106 83.3231 224.477 84.985L232.359 87.9697C232.323 88.0656 232.555 87.5536 233.562 86.589C234.468 85.7219 235.754 84.7253 237.358 83.7841C240.579 81.8943 244.81 80.3843 249.444 80.3843V71.9555ZM228.44 77.2988C229.588 76.2465 230.04 74.9292 230.235 74.026C230.441 73.0724 230.465 72.1021 230.418 71.2365C230.324 69.4955 229.904 67.5579 229.32 65.7049C228.192 62.1234 226.109 57.7981 223.271 55.1571L217.529 61.3278C218.828 62.5365 220.345 65.2663 221.281 68.2371C221.729 69.6602 221.957 70.8731 222.002 71.6934C222.024 72.1084 221.991 72.2715 221.996 72.246C222.001 72.2238 222.031 72.0919 222.127 71.8965C222.224 71.6978 222.411 71.3903 222.746 71.0838L228.44 77.2988ZM204.168 90.2698C206.967 84.483 209.522 81.9245 212.317 80.5433C215.341 79.0489 219.261 78.5933 225.716 78.4039L225.469 69.9787C219.12 70.1649 213.455 70.5793 208.583 72.9867C203.482 75.5073 199.829 79.8826 196.58 86.599L204.168 90.2698ZM205.044 120.038C205.684 120.038 205.175 120.502 204.106 118.426C203.167 116.602 202.36 113.782 201.91 110.332C201.001 103.355 201.728 95.3132 204.168 90.2698L196.58 86.599C193.171 93.6453 192.521 103.512 193.552 111.422C194.073 115.415 195.067 119.283 196.613 122.285C198.029 125.036 200.691 128.466 205.044 128.466V120.038ZM216.488 110.378C214.017 113.752 212.214 116.179 210.326 117.846C208.619 119.352 207.057 120.038 205.044 120.038V128.466C209.537 128.466 213.009 126.72 215.904 124.165C218.618 121.769 220.983 118.505 223.288 115.359L216.488 110.378ZM216.48 110.389L216.479 110.39L223.296 115.347L223.297 115.346L216.48 110.389ZM216.456 110.422L216.455 110.424L223.322 115.312L223.323 115.31L216.456 110.422ZM216.46 110.416L216.46 110.417L223.319 115.316L223.319 115.315L216.46 110.416ZM219.036 106.941C218.13 108.135 217.282 109.294 216.49 110.375L223.29 115.356C224.087 114.267 224.896 113.164 225.752 112.034L219.036 106.941ZM241.29 122C241.29 119.566 240.143 117.338 239.002 115.683C237.787 113.918 236.178 112.231 234.461 110.776C232.738 109.316 230.788 107.991 228.815 107.011C226.912 106.066 224.652 105.273 222.394 105.273V113.702C222.806 113.702 223.715 113.889 225.065 114.56C226.346 115.196 227.733 116.123 229.012 117.207C230.298 118.297 231.359 119.446 232.062 120.466C232.84 121.594 232.861 122.098 232.861 122H241.29ZM187.471 144.579C191.087 147.988 196.221 149.439 201.357 149.687C206.571 149.94 212.301 148.989 217.713 147.046C228.328 143.234 239.058 135.032 241.226 122.731L232.925 121.268C231.506 129.321 224.1 135.796 214.864 139.113C210.351 140.734 205.728 141.46 201.765 141.268C197.724 141.073 194.857 139.958 193.253 138.446L187.471 144.579ZM175.605 81.274C173.576 94.2262 173.082 106.669 174.767 117.504C176.451 128.323 180.367 137.882 187.471 144.579L193.253 138.446C187.975 133.47 184.607 125.922 183.096 116.208C181.587 106.511 181.987 94.997 183.933 82.5785L175.605 81.274ZM223.269 55.1557C222.385 54.3334 221.361 53.9165 220.605 53.6859C219.798 53.4399 218.944 53.3021 218.119 53.227C216.466 53.0764 214.532 53.1429 212.487 53.377C208.38 53.8471 203.356 55.0478 198.369 57.0513C188.66 60.9513 177.599 68.5538 175.605 81.2739L183.933 82.5787C185.218 74.3791 192.639 68.4363 201.51 64.8727C205.813 63.1443 210.103 62.1337 213.446 61.7511C215.126 61.5588 216.451 61.5388 217.354 61.621C217.807 61.6623 218.056 61.7208 218.147 61.7485C218.288 61.7916 217.957 61.7256 217.531 61.3292L223.269 55.1557ZM77.941 38.6374C77.2913 44.3097 76.4698 48.2518 74.9584 51.7923C73.4587 55.3054 71.1656 58.6855 67.213 63.0236L73.4436 68.7004C77.7749 63.9465 80.7148 59.7766 82.7105 55.1015C84.6945 50.4537 85.631 45.5692 86.3151 39.5966L77.941 38.6374ZM25.5034 50.5547C33.4895 43.6018 41.994 39.5809 50.999 38.3181C60.0215 37.0529 69.8399 38.5162 80.4928 43.0012L83.7634 35.2327C71.9967 30.2788 60.6377 28.4552 49.8284 29.971C39.0016 31.4892 29.0199 36.3174 19.9688 44.1976L25.5034 50.5547ZM9.47915 106.951C8.17591 79.2876 16.0031 58.825 25.5033 50.5548L19.9689 44.1974C7.65894 54.9137 -0.297895 78.5313 1.05966 107.348L9.47915 106.951ZM50.3042 133.098C38.6465 137.541 28.769 134.683 21.5747 128.893C14.181 122.943 9.81298 114.037 9.47915 106.951L1.05966 107.348C1.51856 117.088 7.21571 128.157 16.2903 135.46C25.5643 142.923 38.5583 146.595 53.3061 140.974L50.3042 133.098ZM73.2009 93.5272C73.2009 104.114 69.4868 113.278 64.652 120.236C59.739 127.307 53.9523 131.707 50.3042 133.098L53.3061 140.974C58.9986 138.804 66.017 133.043 71.5739 125.046C77.209 116.936 81.6298 106.125 81.6298 93.5272H73.2009ZM42.592 79.8726C44.0387 79.7234 46.7188 80.1482 50.3652 81.3418C53.8598 82.4856 57.7595 84.1715 61.4138 86.0617C65.0809 87.9585 68.3601 89.9883 70.6585 91.7722C71.8189 92.673 72.6053 93.416 73.06 93.9585C73.6609 94.6756 73.2009 94.458 73.2009 93.5272H81.6298C81.6298 91.3176 80.365 89.5526 79.5203 88.5447C78.5292 87.3621 77.2293 86.2025 75.8267 85.1138C72.999 82.9189 69.2456 80.623 65.2862 78.5751C61.3141 76.5205 56.9937 74.6425 52.9872 73.3312C49.1326 72.0695 45.0308 71.1476 41.7276 71.4882L42.592 79.8726ZM39.2216 92.3457C39.3772 88.327 39.8276 85.8993 40.6132 84.0766C41.3577 82.3492 42.5498 80.8289 44.8474 78.9266L39.4721 72.4342C36.5323 74.8682 34.3122 77.4003 32.8726 80.7406C31.4741 83.9856 30.9686 87.6409 30.7991 92.0198L39.2216 92.3457ZM54.9267 99.4727C48.5957 96.8453 44.8949 94.6086 37.6195 88.8731L32.4012 95.4924C40.1119 101.571 44.4759 104.261 51.6958 107.258L54.9267 99.4727ZM38.2964 122.594C42.2904 122.594 46.9808 120.506 50.5807 117.419C54.2726 114.252 57.5257 109.422 57.5257 103.365H49.0968C49.0968 106.234 47.5535 108.911 45.0935 111.021C42.5414 113.209 39.7244 114.166 38.2964 114.166V122.594ZM21.0905 81.9199C20.2068 90.649 19.7222 100.301 21.5568 107.895C22.4845 111.736 24.0919 115.436 26.8962 118.203C29.8092 121.077 33.6599 122.594 38.2964 122.594V114.166C35.634 114.166 33.9878 113.359 32.8163 112.203C31.5362 110.94 30.4715 108.903 29.7499 105.916C28.2858 99.8551 28.5937 91.489 29.4765 82.7689L21.0905 81.9199ZM72.2484 62.1104C62.7431 57.2457 50.846 56.3431 40.933 59.3994C30.9213 62.4862 22.3077 69.8965 21.0905 81.9199L29.4765 82.7689C30.2598 75.031 35.6601 69.8455 43.4164 67.4541C51.2714 65.0323 60.8965 65.7691 68.4083 69.6136L72.2484 62.1104ZM337.099 61.2767C337.099 61.8507 336.999 61.8973 337.104 61.6957C337.161 61.5855 337.258 61.4452 337.402 61.3096C337.544 61.1754 337.686 61.0891 337.794 61.0389C337.98 60.9522 337.991 61.0052 337.647 61.0115C337.314 61.0177 336.842 60.9783 336.183 60.8726L334.847 69.1948C336.394 69.4433 339.014 69.7691 341.353 68.6794C342.687 68.0578 343.831 67.0282 344.581 65.5865C345.29 64.2235 345.528 62.7266 345.528 61.2767H337.099ZM336.028 61.0606C336.337 61.3882 336.596 61.6625 336.827 61.9168C337.058 62.1719 337.216 62.3582 337.323 62.4959C337.439 62.6459 337.424 62.6501 337.369 62.5385C337.337 62.4746 337.274 62.3397 337.218 62.1429C337.161 61.9448 337.099 61.6483 337.099 61.2767H345.528C345.528 60.1832 345.176 59.3039 344.905 58.7629C344.621 58.1971 344.278 57.7113 343.99 57.3386C343.43 56.6155 342.711 55.861 342.154 55.2711L336.028 61.0606ZM330.824 51.3667C330.824 53.8604 331.923 55.9337 332.913 57.3771C333.919 58.8417 335.167 60.15 336.028 61.0606L342.154 55.2711C341.209 54.272 340.432 53.4366 339.862 52.607C339.592 52.2128 339.429 51.9041 339.339 51.6745C339.251 51.4522 339.253 51.3602 339.253 51.3667H330.824ZM340.244 37.3154C337.075 38.1469 334.499 39.856 332.845 42.6136C331.288 45.2087 330.824 48.2816 330.824 51.3667H339.253C339.253 48.9901 339.637 47.6763 340.073 46.9498C340.411 46.3858 340.973 45.8383 342.383 45.4681L340.244 37.3154ZM350.205 53.3032C352.42 51.7252 353.016 49.2748 353.004 47.4434C352.992 45.5747 352.392 43.7065 351.457 42.1323C349.583 38.9792 345.562 35.9196 340.244 37.3154L342.383 45.4681C342.841 45.3479 343.105 45.4213 343.315 45.5282C343.593 45.6697 343.932 45.9692 344.211 46.4381C344.5 46.925 344.575 47.3422 344.576 47.4973C344.577 47.6896 344.524 47.0014 345.314 46.4382L350.205 53.3032ZM339.732 50.1189C339.801 50.3489 339.987 50.9996 340.309 51.6624C340.63 52.3217 341.255 53.364 342.432 54.1354C345.318 56.0254 348.343 54.6298 350.205 53.3032L345.314 46.4382C344.811 46.797 344.763 46.7162 345.086 46.6531C345.275 46.6161 345.583 46.5878 345.966 46.6547C346.358 46.7231 346.73 46.8743 347.051 47.0844C347.653 47.4787 347.872 47.9407 347.891 47.979C347.911 48.0209 347.899 48.0099 347.807 47.7004L339.732 50.1189ZM344.858 52.3262C344.148 52.5741 343.312 52.6458 342.459 52.4257C341.651 52.2171 341.075 51.8112 340.72 51.4896C340.1 50.9271 339.837 50.3307 339.798 50.2466C339.689 50.0103 339.64 49.8123 339.732 50.1187L347.807 47.7006C347.792 47.6522 347.653 47.1522 347.45 46.713C347.365 46.5275 347.054 45.8544 346.383 45.2458C346.003 44.9011 345.401 44.4798 344.565 44.2642C343.685 44.037 342.82 44.1101 342.08 44.3684L344.858 52.3262ZM345.333 53.4574C345.389 53.6346 345.389 53.722 345.386 53.6768C345.383 53.6419 345.381 53.5509 345.392 53.4036C345.417 53.1013 345.488 52.7198 345.605 52.3449C345.727 51.9547 345.851 51.7229 345.899 51.6497C345.919 51.6186 345.877 51.6916 345.748 51.8106C345.621 51.9275 345.33 52.1614 344.858 52.3262L342.08 44.3684C340.403 44.9538 339.388 46.2104 338.857 47.0175C338.264 47.9187 337.845 48.9178 337.56 49.833C337.269 50.7635 337.068 51.762 336.99 52.7324C336.918 53.6372 336.927 54.8283 337.294 55.9936L345.333 53.4574ZM353.163 54.0196C351.465 54.385 349.178 54.2562 347.221 53.7244C346.26 53.4632 345.567 53.1546 345.167 52.906C344.645 52.582 345.084 52.6693 345.333 53.4573L337.294 55.9937C337.946 58.0574 339.555 59.3432 340.719 60.066C342.004 60.8643 343.511 61.4508 345.011 61.8583C347.975 62.6638 351.654 62.9663 354.936 62.2597L353.163 54.0196ZM353.576 41.7256C354.209 43.4627 354.328 46.881 353.707 50.2172C353.408 51.8203 352.992 53.0977 352.584 53.9054C352.034 54.9955 352.032 54.2631 353.163 54.0196L354.936 62.2597C357.81 61.6411 359.366 59.1752 360.108 57.7045C360.993 55.9515 361.606 53.8409 361.993 51.7597C362.744 47.7274 362.863 42.5924 361.495 38.8396L353.576 41.7256ZM340.563 32.8967C343.827 32.3064 346.418 33.0488 348.487 34.5313C350.64 36.0747 352.429 38.5801 353.576 41.7257L361.495 38.8395C359.906 34.4794 357.225 30.4241 353.397 27.6803C349.483 24.8756 344.581 23.6043 339.063 24.6025L340.563 32.8967ZM329.66 44.6059C329.953 43.4668 331.496 40.6327 333.989 37.7847C335.171 36.4342 336.432 35.2394 337.653 34.353C338.91 33.4403 339.901 33.0165 340.563 32.8967L339.063 24.6025C336.689 25.0319 334.515 26.2147 332.7 27.5328C330.849 28.8771 329.131 30.5373 327.647 32.2327C324.807 35.4763 322.269 39.4974 321.496 42.5106L329.66 44.6059ZM336.183 60.8726C333.99 60.5203 331.975 58.3444 330.645 54.0448C330.032 52.0656 329.689 49.9769 329.561 48.1628C329.427 46.251 329.558 45.0053 329.66 44.6059L321.496 42.5106C321.064 44.1928 320.994 46.4835 321.153 48.7526C321.319 51.1194 321.763 53.8562 322.592 56.5366C324.146 61.5563 327.634 68.0365 334.847 69.1948L336.183 60.8726ZM333.287 81.033C333.297 80.7619 333.464 80.1021 334.483 79.1584C335.484 78.2322 337.007 77.335 338.842 76.678C340.664 76.0259 342.577 75.689 344.238 75.7089C345.954 75.7294 347.024 76.1193 347.555 76.5048L352.508 69.6851C350.072 67.9151 347.07 67.3133 344.339 67.2807C341.554 67.2474 338.646 67.7959 336.002 68.7423C333.371 69.6839 330.783 71.0984 328.759 72.9719C326.753 74.828 324.979 77.4558 324.863 80.7351L333.287 81.033ZM331.657 102.616C332.418 93.8181 333.123 85.6825 333.287 81.0329L324.863 80.7351C324.709 85.1122 324.031 92.9684 323.26 101.89L331.657 102.616ZM331.665 102.505L331.665 102.504L323.251 102.002L323.251 102.003L331.665 102.505ZM331.642 102.762L331.642 102.761L323.275 101.747L323.274 101.748L331.642 102.762ZM329.359 142.897C329.64 143.369 329.544 143.516 329.434 142.613C329.349 141.915 329.29 140.922 329.27 139.626C329.231 137.045 329.346 133.604 329.57 129.601C330.015 121.609 330.871 111.706 331.657 102.618L323.259 101.892C322.477 110.942 321.608 120.985 321.154 129.131C320.927 133.197 320.798 136.873 320.843 139.755C320.865 141.19 320.931 142.515 321.067 143.634C321.179 144.547 321.402 146.008 322.115 147.207L329.359 142.897ZM346.155 134.498C345.668 135.641 344.524 137.217 342.751 138.859C341.021 140.464 338.926 141.912 336.833 142.905C334.688 143.922 332.869 144.309 331.589 144.216C330.524 144.139 329.877 143.768 329.358 142.896L322.115 147.207C324.207 150.72 327.501 152.371 330.979 152.623C334.243 152.86 337.57 151.884 340.445 150.521C343.372 149.133 346.172 147.182 348.482 145.041C350.75 142.938 352.792 140.423 353.909 137.802L346.155 134.498ZM347.555 76.5048C346.734 75.9084 346.444 75.2014 346.43 75.1706C346.365 75.026 346.366 74.9855 346.403 75.1327C346.473 75.4162 346.567 75.9492 346.661 76.7915C346.846 78.4463 346.981 80.8121 347.068 83.7251C347.24 89.5232 347.211 97.1351 347.075 104.782C346.94 112.418 346.7 120.034 346.458 125.82C346.337 128.716 346.216 131.136 346.108 132.863C346.054 133.731 346.005 134.395 345.963 134.847C345.941 135.077 345.926 135.212 345.917 135.274C345.912 135.307 345.915 135.279 345.928 135.214C345.935 135.181 345.95 135.109 345.975 135.015C345.996 134.938 346.05 134.742 346.155 134.498L353.909 137.802C354.1 137.353 354.176 136.952 354.193 136.872C354.225 136.707 354.249 136.553 354.266 136.432C354.3 136.187 354.329 135.908 354.356 135.625C354.409 135.05 354.464 134.288 354.52 133.389C354.633 131.58 354.757 129.097 354.88 126.173C355.124 120.32 355.366 112.636 355.503 104.931C355.639 97.2385 355.671 89.4713 355.493 83.4743C355.404 80.4899 355.261 77.8542 355.038 75.8564C354.928 74.8724 354.785 73.9164 354.584 73.1047C354.485 72.7043 354.342 72.2146 354.123 71.7264C353.955 71.352 353.502 70.4069 352.508 69.6851L347.555 76.5048ZM165.117 96.5432C165.117 103.434 165.113 109.759 164.481 115.493C163.852 121.213 162.626 126.012 160.389 129.895C156.181 137.198 147.468 142.734 126.999 142.734V151.163C148.863 151.163 161.316 145.168 167.692 134.104C170.746 128.804 172.166 122.711 172.86 116.416C173.551 110.135 173.546 103.323 173.546 96.5432H165.117ZM133.001 47.5406C144.062 47.5406 151.821 52.3573 157.021 60.6319C162.374 69.1508 165.117 81.5572 165.117 96.5432H173.546C173.546 80.7425 170.688 66.5404 164.158 56.1474C157.474 45.5102 147.068 39.1117 133.001 39.1117V47.5406ZM87.7997 97.5905C91.0715 84.8353 96.8749 72.1424 104.714 62.7317C112.54 53.3366 122.084 47.5406 133.001 47.5406V39.1117C118.79 39.1117 107.078 46.7238 98.2377 57.337C89.4099 67.9347 83.1355 81.8503 79.6352 95.4962L87.7997 97.5905ZM126.999 142.734C115.563 142.734 103.985 137.844 96.1836 129.714C88.4814 121.688 84.474 110.556 87.7997 97.5905L79.6352 95.4962C75.5144 111.561 80.5838 125.632 90.102 135.55C99.5207 145.366 113.307 151.163 126.999 151.163V142.734ZM108.142 73.5247C109.793 72.834 113.01 72.0624 117.233 71.4558C121.354 70.8637 126.111 70.4732 130.655 70.4179C135.244 70.3622 139.401 70.6518 142.415 71.3242C143.934 71.663 144.934 72.0504 145.508 72.3871C146.097 72.7327 145.805 72.7574 145.66 72.2251L153.795 70.0164C153.14 67.6064 151.386 66.0632 149.773 65.1169C148.144 64.1616 146.202 63.533 144.25 63.0976C140.324 62.2215 135.429 61.9305 130.552 61.9897C125.63 62.0495 120.507 62.4699 116.034 63.1127C111.661 63.741 107.567 64.6284 104.889 65.7491L108.142 73.5247ZM110.456 101.894C108.936 97.8874 107.924 90.4554 107.857 83.6004C107.824 80.2195 108.025 77.2329 108.426 75.0922C108.629 74.0073 108.85 73.3232 109.016 72.9644C109.246 72.467 109.105 73.1218 108.142 73.5248L104.889 65.749C102.899 66.5814 101.878 68.32 101.366 69.4272C100.79 70.673 100.408 72.1143 100.141 73.5416C99.6013 76.4257 99.3927 80.012 99.4285 83.6825C99.4991 90.9304 100.539 99.5154 102.575 104.883L110.456 101.894ZM146.325 100.902C146.61 100.511 146.639 100.759 145.384 101.184C144.31 101.547 142.786 101.877 140.856 102.138C137.017 102.657 132.117 102.829 127.195 102.71C122.279 102.591 117.512 102.185 113.959 101.605C112.162 101.311 110.821 100.995 109.968 100.705C109.531 100.556 109.378 100.465 109.396 100.476C109.412 100.486 109.551 100.571 109.734 100.755C109.915 100.936 110.233 101.307 110.456 101.894L102.575 104.883C103.163 106.435 104.371 107.281 104.98 107.656C105.707 108.103 106.512 108.432 107.248 108.683C108.741 109.191 110.605 109.597 112.6 109.923C116.632 110.582 121.8 111.01 126.991 111.136C132.174 111.262 137.552 111.09 141.984 110.491C144.189 110.193 146.3 109.772 148.086 109.168C149.69 108.625 151.805 107.689 153.13 105.875L146.325 100.902ZM145.66 72.2251C146.158 74.0588 147.027 80.5329 147.308 87.3498C147.446 90.699 147.432 93.9456 147.193 96.5792C147.073 97.8975 146.904 98.9734 146.701 99.7883C146.481 100.67 146.295 100.943 146.325 100.902L153.13 105.875C154.041 104.629 154.554 103.133 154.88 101.825C155.222 100.45 155.444 98.9154 155.587 97.343C155.873 94.1952 155.875 90.5412 155.729 87.0028C155.442 80.0448 154.549 72.796 153.795 70.0164L145.66 72.2251ZM108.356 133.436C114.905 133.436 121.384 128.774 121.384 121.69H112.955C112.955 122.924 111.541 125.007 108.356 125.007V133.436ZM95.3275 121.69C95.3275 128.774 101.806 133.436 108.356 133.436V125.007C105.17 125.007 103.756 122.924 103.756 121.69H95.3275ZM108.356 109.944C101.806 109.944 95.3275 114.606 95.3275 121.69H103.756C103.756 120.455 105.17 118.373 108.356 118.373V109.944ZM121.384 121.69C121.384 114.606 114.905 109.944 108.356 109.944V118.373C111.541 118.373 112.955 120.455 112.955 121.69H121.384ZM129.436 127.285C129.436 129.591 127.766 130.935 126.333 130.935V139.363C132.983 139.363 137.865 133.665 137.865 127.285H129.436ZM126.333 123.635C127.766 123.635 129.436 124.978 129.436 127.285H137.865C137.865 120.905 132.983 115.206 126.333 115.206V123.635ZM123.229 127.285C123.229 124.978 124.9 123.635 126.333 123.635V115.206C119.683 115.206 114.801 120.905 114.801 127.285H123.229ZM126.333 130.935C124.9 130.935 123.229 129.591 123.229 127.285H114.801C114.801 133.665 119.683 139.363 126.333 139.363V130.935ZM146.471 136.59C152.345 136.59 157.903 132.22 157.903 125.898H149.474C149.474 126.731 148.57 128.161 146.471 128.161V136.59ZM135.039 125.898C135.039 132.22 140.598 136.59 146.471 136.59V128.161C144.372 128.161 143.468 126.731 143.468 125.898H135.039ZM146.471 115.206C140.598 115.206 135.039 119.576 135.039 125.898H143.468C143.468 125.065 144.372 123.635 146.471 123.635V115.206ZM157.903 125.898C157.903 119.576 152.345 115.206 146.471 115.206V123.635C148.57 123.635 149.474 125.065 149.474 125.898H157.903Z" fill="#304700" mask="url(#path-1-outside-1_6382_4005)"/>
<mask id="path-3-outside-2_6382_4005" maskUnits="userSpaceOnUse" x="4.33691" y="-0.208984" width="363" height="147" fill="black">
<rect fill="white" x="4.33691" y="-0.208984" width="363" height="147"/>
<path fill-rule="evenodd" clip-rule="evenodd" d="M255.143 16.4968C252.626 21.3871 252.429 48.2713 253.658 69.8496C242.591 69.8496 233.818 77.0249 232.632 80.157C231.769 82.4345 231.869 84.8939 232.632 86.9514C233.829 90.1826 238.429 96.0477 252.014 95.3721L250.884 133.831C254.721 137.668 272.656 135.082 274.741 126.824V88.2861C282.205 88.4859 285.514 86.5636 291.091 82.3635L289.031 125.53C291.091 129.122 312.982 126.824 312.982 120.957L312.329 77.7349C317.2 77.7349 323.837 73.021 323.837 66.8193C323.837 59.2573 320.597 54.8005 313.446 51.8333C313.796 48.5977 314.148 45.5055 314.482 42.5679L314.482 42.5636L314.482 42.5623C316.333 26.2977 317.644 14.7723 315.113 9.87512C311.772 3.40891 301.557 2.33989 294.677 11.21C292.439 14.0948 291.855 39.0718 292.341 56.2546C291.59 60.4254 278.994 63.4284 276.075 59.4244C279.487 45.0059 279.674 34.2344 279.912 14.8803C279.912 9.07997 261.727 3.70261 255.143 16.4968ZM229.807 67.871C231.814 66.0323 228.751 55.7719 224.614 51.9221C220.949 48.5155 187.261 54.6863 183.983 75.606C180.009 100.977 182.194 123.52 194.576 135.192C205.016 145.034 237.702 136.033 241.289 115.68C241.289 111.008 231.947 103.167 226.608 103.167C225.727 104.329 224.899 105.46 224.104 106.545L224.104 106.545L224.103 106.546L224.102 106.547L224.102 106.548C219.327 113.068 215.764 117.932 209.258 117.932C201.833 117.932 198.739 94.2039 204.588 82.1141C210.637 69.6109 217.002 68.2466 229.807 67.871ZM86.3419 32.7966C85.008 44.4417 82.8261 50.4496 74.5422 59.5417C57.5251 50.8325 31.4979 56.2628 29.4974 76.0241C27.7309 93.4733 27.9125 112.06 42.5102 112.06C47.9323 112.06 57.5251 105.97 57.5251 97.0449C50.7497 94.2331 46.7172 91.7695 39.2242 85.8624C39.5493 77.4649 41.1362 73.6964 46.3736 69.3601C55.8735 68.3807 81.6292 82.0919 81.6292 87.2069C81.6292 110.391 65.3596 127.156 56.019 130.716C29.6135 140.78 10.276 117.656 9.48327 100.829C8.15288 72.5891 16.0449 50.5491 26.95 41.0558C43.9871 26.2227 63.9224 23.3578 86.3419 32.7966ZM333.289 74.5637C333.54 67.4631 348.311 62.4637 354.246 66.7746C357.009 68.782 354.834 128.447 354.246 129.829C351.038 137.358 335.171 147.502 329.951 138.731C328.223 135.828 330.104 114.072 331.672 95.9347L331.672 95.934L331.672 95.9324C332.438 87.0729 333.13 79.077 333.289 74.5637ZM339.623 58.7126C342.713 59.2088 345.421 59.0032 345.421 54.9556C345.421 54.1968 344.41 53.1261 343.198 51.8447C341.394 49.9351 339.146 47.5573 339.146 45.0456C339.146 39.5838 340.842 36.2723 345.421 35.0706C351.365 33.5108 354.716 41.5201 351.867 43.5496C348.816 45.7233 348.2 43.6675 347.877 42.5885C347.771 42.2337 347.696 41.9845 347.577 42.0262C345.973 42.5862 344.868 46.6512 345.421 48.4044C346.226 50.9557 353.177 52.8906 358.157 51.8186C361.643 51.0682 363.644 39.4513 361.643 33.9615C358.908 26.4558 352.703 20.84 343.921 22.4285C337.848 23.5268 330.752 33.0848 329.686 37.2371C328.617 41.4003 330.216 57.202 339.623 58.7126ZM131.212 140.629C173.545 140.629 173.545 117.566 173.545 90.2236C173.545 59.4368 162.342 37.0065 137.214 37.0065C112.087 37.0065 94.7029 63.8226 87.9309 90.2237C80.4844 119.254 106.084 140.629 131.212 140.629ZM153.941 64.801C151.902 57.2904 119.387 59.6946 110.729 63.3172C106.623 65.0348 107.174 87.6947 110.729 97.0687C112.145 100.802 149.782 102.76 153.941 97.0687C157.464 92.2468 155.194 69.4144 153.941 64.801ZM121.383 115.37C121.383 119.53 117.437 122.901 112.569 122.901C107.701 122.901 103.755 119.53 103.755 115.37C103.755 111.211 107.701 107.839 112.569 107.839C117.437 107.839 121.383 111.211 121.383 115.37ZM130.546 128.829C134.588 128.829 137.864 125.308 137.864 120.965C137.864 116.622 134.588 113.101 130.546 113.101C126.505 113.101 123.228 116.622 123.228 120.965C123.228 125.308 126.505 128.829 130.546 128.829ZM157.902 119.578C157.902 123.156 154.671 126.056 150.685 126.056C146.698 126.056 143.467 123.156 143.467 119.578C143.467 116.001 146.698 113.101 150.685 113.101C154.671 113.101 157.902 116.001 157.902 119.578Z"/>
</mask>
<path fill-rule="evenodd" clip-rule="evenodd" d="M255.143 16.4968C252.626 21.3871 252.429 48.2713 253.658 69.8496C242.591 69.8496 233.818 77.0249 232.632 80.157C231.769 82.4345 231.869 84.8939 232.632 86.9514C233.829 90.1826 238.429 96.0477 252.014 95.3721L250.884 133.831C254.721 137.668 272.656 135.082 274.741 126.824V88.2861C282.205 88.4859 285.514 86.5636 291.091 82.3635L289.031 125.53C291.091 129.122 312.982 126.824 312.982 120.957L312.329 77.7349C317.2 77.7349 323.837 73.021 323.837 66.8193C323.837 59.2573 320.597 54.8005 313.446 51.8333C313.796 48.5977 314.148 45.5055 314.482 42.5679L314.482 42.5636L314.482 42.5623C316.333 26.2977 317.644 14.7723 315.113 9.87512C311.772 3.40891 301.557 2.33989 294.677 11.21C292.439 14.0948 291.855 39.0718 292.341 56.2546C291.59 60.4254 278.994 63.4284 276.075 59.4244C279.487 45.0059 279.674 34.2344 279.912 14.8803C279.912 9.07997 261.727 3.70261 255.143 16.4968ZM229.807 67.871C231.814 66.0323 228.751 55.7719 224.614 51.9221C220.949 48.5155 187.261 54.6863 183.983 75.606C180.009 100.977 182.194 123.52 194.576 135.192C205.016 145.034 237.702 136.033 241.289 115.68C241.289 111.008 231.947 103.167 226.608 103.167C225.727 104.329 224.899 105.46 224.104 106.545L224.104 106.545L224.103 106.546L224.102 106.547L224.102 106.548C219.327 113.068 215.764 117.932 209.258 117.932C201.833 117.932 198.739 94.2039 204.588 82.1141C210.637 69.6109 217.002 68.2466 229.807 67.871ZM86.3419 32.7966C85.008 44.4417 82.8261 50.4496 74.5422 59.5417C57.5251 50.8325 31.4979 56.2628 29.4974 76.0241C27.7309 93.4733 27.9125 112.06 42.5102 112.06C47.9323 112.06 57.5251 105.97 57.5251 97.0449C50.7497 94.2331 46.7172 91.7695 39.2242 85.8624C39.5493 77.4649 41.1362 73.6964 46.3736 69.3601C55.8735 68.3807 81.6292 82.0919 81.6292 87.2069C81.6292 110.391 65.3596 127.156 56.019 130.716C29.6135 140.78 10.276 117.656 9.48327 100.829C8.15288 72.5891 16.0449 50.5491 26.95 41.0558C43.9871 26.2227 63.9224 23.3578 86.3419 32.7966ZM333.289 74.5637C333.54 67.4631 348.311 62.4637 354.246 66.7746C357.009 68.782 354.834 128.447 354.246 129.829C351.038 137.358 335.171 147.502 329.951 138.731C328.223 135.828 330.104 114.072 331.672 95.9347L331.672 95.934L331.672 95.9324C332.438 87.0729 333.13 79.077 333.289 74.5637ZM339.623 58.7126C342.713 59.2088 345.421 59.0032 345.421 54.9556C345.421 54.1968 344.41 53.1261 343.198 51.8447C341.394 49.9351 339.146 47.5573 339.146 45.0456C339.146 39.5838 340.842 36.2723 345.421 35.0706C351.365 33.5108 354.716 41.5201 351.867 43.5496C348.816 45.7233 348.2 43.6675 347.877 42.5885C347.771 42.2337 347.696 41.9845 347.577 42.0262C345.973 42.5862 344.868 46.6512 345.421 48.4044C346.226 50.9557 353.177 52.8906 358.157 51.8186C361.643 51.0682 363.644 39.4513 361.643 33.9615C358.908 26.4558 352.703 20.84 343.921 22.4285C337.848 23.5268 330.752 33.0848 329.686 37.2371C328.617 41.4003 330.216 57.202 339.623 58.7126ZM131.212 140.629C173.545 140.629 173.545 117.566 173.545 90.2236C173.545 59.4368 162.342 37.0065 137.214 37.0065C112.087 37.0065 94.7029 63.8226 87.9309 90.2237C80.4844 119.254 106.084 140.629 131.212 140.629ZM153.941 64.801C151.902 57.2904 119.387 59.6946 110.729 63.3172C106.623 65.0348 107.174 87.6947 110.729 97.0687C112.145 100.802 149.782 102.76 153.941 97.0687C157.464 92.2468 155.194 69.4144 153.941 64.801ZM121.383 115.37C121.383 119.53 117.437 122.901 112.569 122.901C107.701 122.901 103.755 119.53 103.755 115.37C103.755 111.211 107.701 107.839 112.569 107.839C117.437 107.839 121.383 111.211 121.383 115.37ZM130.546 128.829C134.588 128.829 137.864 125.308 137.864 120.965C137.864 116.622 134.588 113.101 130.546 113.101C126.505 113.101 123.228 116.622 123.228 120.965C123.228 125.308 126.505 128.829 130.546 128.829ZM157.902 119.578C157.902 123.156 154.671 126.056 150.685 126.056C146.698 126.056 143.467 123.156 143.467 119.578C143.467 116.001 146.698 113.101 150.685 113.101C154.671 113.101 157.902 116.001 157.902 119.578Z" fill="#F0FFCA"/>
<path d="M253.658 69.8496V74.064H258.119L257.866 69.6099L253.658 69.8496ZM255.143 16.4968L258.89 18.4253L258.89 18.4253L255.143 16.4968ZM232.632 80.157L228.69 78.6647L228.69 78.6647L232.632 80.157ZM232.632 86.9514L228.68 88.4159V88.4159L232.632 86.9514ZM252.014 95.3721L256.227 95.4959L256.361 90.9363L251.805 91.1629L252.014 95.3721ZM250.884 133.831L246.671 133.707L246.618 135.525L247.904 136.811L250.884 133.831ZM274.741 126.824L278.827 127.856L278.955 127.348V126.824H274.741ZM274.741 88.2861L274.854 84.0732L270.527 83.9573V88.2861H274.741ZM291.091 82.3635L295.3 82.5644L295.728 73.5946L288.555 78.9971L291.091 82.3635ZM289.031 125.53L284.821 125.329L284.762 126.558L285.375 127.626L289.031 125.53ZM312.982 120.957H317.197V120.925L317.196 120.893L312.982 120.957ZM312.329 77.7349V73.5205H308.051L308.115 77.7986L312.329 77.7349ZM313.446 51.8333L309.256 51.3803L308.917 54.5169L311.831 55.726L313.446 51.8333ZM314.482 42.5679L318.669 43.0442L318.671 43.0317L318.672 43.0192L314.482 42.5679ZM314.482 42.5636L310.31 41.9676L310.3 42.0398L310.292 42.1123L314.482 42.5636ZM314.482 42.5623L318.654 43.1583L318.663 43.0986L318.67 43.0387L314.482 42.5623ZM315.113 9.87512L318.858 7.94065L318.858 7.94058L315.113 9.87512ZM294.677 11.21L298.007 13.7932V13.7932L294.677 11.21ZM292.341 56.2546L296.489 57.0012L296.566 56.5717L296.554 56.1354L292.341 56.2546ZM276.075 59.4244L271.974 58.4538L271.527 60.3407L272.67 61.9074L276.075 59.4244ZM279.912 14.8803L284.126 14.9322L284.126 14.9063V14.8803H279.912ZM224.614 51.9221L227.485 48.8368L227.483 48.8354L224.614 51.9221ZM229.807 67.871L229.93 72.0836L231.497 72.0376L232.654 70.9785L229.807 67.871ZM183.983 75.606L179.819 74.9536L179.819 74.9537L183.983 75.606ZM194.576 135.192L197.467 132.126L194.576 135.192ZM241.289 115.68L245.44 116.411L245.504 116.048V115.68H241.289ZM226.608 103.167V98.9527H224.515L223.25 100.621L226.608 103.167ZM224.104 106.545L220.704 104.055L220.682 104.084L220.661 104.115L224.104 106.545ZM224.104 106.545L227.533 108.995L227.54 108.985L227.547 108.976L224.104 106.545ZM224.103 106.546L220.674 104.096L220.67 104.102L224.103 106.546ZM224.102 106.547L227.511 109.026L227.523 109.009L227.536 108.991L224.102 106.547ZM224.102 106.548L227.502 109.038L227.51 109.027L224.102 106.548ZM204.588 82.1141L200.794 80.2786V80.2787L204.588 82.1141ZM74.5422 59.5417L72.6221 63.2933L75.4887 64.7604L77.6575 62.3801L74.5422 59.5417ZM86.3419 32.7966L90.529 33.2762L90.8884 30.1381L87.9772 28.9124L86.3419 32.7966ZM29.4974 76.0241L33.6904 76.4486L29.4974 76.0241ZM57.5251 97.0449H61.7395V94.231L59.1405 93.1524L57.5251 97.0449ZM39.2242 85.8624L35.013 85.6994L34.93 87.8436L36.6151 89.1721L39.2242 85.8624ZM46.3736 69.3601L45.9415 65.1679L44.6703 65.2989L43.686 66.1139L46.3736 69.3601ZM56.019 130.716L57.52 134.654H57.52L56.019 130.716ZM9.48327 100.829L13.693 100.631L9.48327 100.829ZM26.95 41.0558L29.7171 44.2345L29.7173 44.2343L26.95 41.0558ZM354.246 66.7746L356.722 63.3648L356.722 63.3648L354.246 66.7746ZM333.289 74.5637L329.077 74.4148V74.4148L333.289 74.5637ZM354.246 129.829L358.123 131.481V131.481L354.246 129.829ZM329.951 138.731L326.329 140.886L326.329 140.887L329.951 138.731ZM331.672 95.9347L327.488 95.4276L327.48 95.4995L327.473 95.5717L331.672 95.9347ZM331.672 95.934L335.856 96.4411L335.871 96.3135L335.879 96.1851L331.672 95.934ZM331.672 95.9324L327.474 95.5694L327.469 95.6253L327.465 95.6813L331.672 95.9324ZM339.623 58.7126L340.291 54.5515L339.623 58.7126ZM343.198 51.8447L340.136 54.7395L340.136 54.7395L343.198 51.8447ZM345.421 35.0706L346.491 39.147L345.421 35.0706ZM351.867 43.5496L354.313 46.9821L354.313 46.9821L351.867 43.5496ZM347.877 42.5885L343.84 43.7976L343.84 43.7978L347.877 42.5885ZM347.577 42.0262L348.966 46.0051L348.966 46.005L347.577 42.0262ZM345.421 48.4044L349.44 47.1362V47.1362L345.421 48.4044ZM358.157 51.8186L357.271 47.6985L358.157 51.8186ZM361.643 33.9615L357.684 35.4045V35.4045L361.643 33.9615ZM343.921 22.4285L343.171 18.2814L343.921 22.4285ZM329.686 37.2371L333.768 38.2848V38.2848L329.686 37.2371ZM87.9309 90.2237L92.0131 91.2708L87.9309 90.2237ZM110.729 63.3172L112.356 67.2051L112.356 67.205L110.729 63.3172ZM153.941 64.801L158.008 63.6967V63.6967L153.941 64.801ZM110.729 97.0687L106.788 98.5632L110.729 97.0687ZM153.941 97.0687L157.344 99.5551L153.941 97.0687ZM257.866 69.6099C257.256 58.9158 257.001 46.9104 257.209 37.0036C257.313 32.0442 257.532 27.672 257.87 24.2797C258.039 22.5808 258.233 21.1871 258.442 20.1182C258.546 19.5856 258.647 19.1707 258.739 18.8613C258.835 18.5356 258.896 18.4144 258.89 18.4253L251.396 14.5683C250.799 15.7284 250.431 17.165 250.17 18.4984C249.892 19.92 249.667 21.5976 249.483 23.444C249.114 27.1422 248.889 31.7566 248.782 36.8269C248.569 46.9792 248.83 59.2051 249.45 70.0893L257.866 69.6099ZM236.573 81.6493C236.537 81.7452 236.769 81.2333 237.776 80.2687C238.682 79.4016 239.968 78.405 241.572 77.4638C244.793 75.574 249.024 74.064 253.658 74.064V65.6352C247.225 65.6352 241.536 67.7128 237.307 70.1937C235.186 71.4379 233.365 72.8224 231.946 74.1815C230.629 75.4432 229.32 77.0028 228.69 78.6647L236.573 81.6493ZM236.584 85.4869C236.144 84.3019 236.101 82.896 236.573 81.6493L228.69 78.6647C227.438 81.9729 227.594 85.4859 228.68 88.4159L236.584 85.4869ZM251.805 91.1629C245.639 91.4695 241.962 90.2735 239.834 89.0061C237.71 87.7407 236.867 86.2518 236.584 85.4869L228.68 88.4159C229.594 90.8822 231.65 93.9415 235.521 96.2475C239.389 98.5516 244.805 99.9503 252.224 99.5813L251.805 91.1629ZM255.097 133.955L256.227 95.4959L247.802 95.2483L246.671 133.707L255.097 133.955ZM270.655 125.792C270.482 126.476 269.879 127.416 268.351 128.426C266.846 129.419 264.794 130.235 262.527 130.756C260.269 131.274 258.029 131.446 256.251 131.314C254.209 131.161 253.698 130.685 253.864 130.851L247.904 136.811C249.989 138.896 253.159 139.535 255.624 139.719C258.353 139.923 261.446 139.652 264.412 138.971C267.369 138.292 270.431 137.153 272.996 135.459C275.537 133.781 277.957 131.301 278.827 127.856L270.655 125.792ZM270.527 88.2861V126.824H278.955V88.2861H270.527ZM288.555 78.9971C285.782 81.0858 283.95 82.307 282.061 83.0605C280.271 83.7749 278.179 84.1622 274.854 84.0732L274.628 92.499C278.767 92.6098 282.061 92.1358 285.186 90.889C288.212 89.6813 290.823 87.8414 293.626 85.7299L288.555 78.9971ZM293.24 125.73L295.3 82.5644L286.881 82.1626L284.821 125.329L293.24 125.73ZM308.768 120.957C308.768 120.268 309.115 119.946 309.022 120.041C308.9 120.167 308.525 120.466 307.73 120.841C306.156 121.584 303.798 122.227 301.154 122.623C298.537 123.015 295.944 123.121 293.997 122.956C293.01 122.873 292.356 122.733 292.003 122.614C291.475 122.435 292.156 122.507 292.687 123.433L285.375 127.626C286.421 129.45 288.236 130.237 289.299 130.597C290.538 131.016 291.932 131.241 293.287 131.355C296.024 131.587 299.29 131.425 302.404 130.959C305.491 130.496 308.734 129.688 311.329 128.463C312.619 127.854 313.97 127.039 315.053 125.929C316.165 124.79 317.197 123.113 317.197 120.957H308.768ZM308.115 77.7986L308.769 121.021L317.196 120.893L316.543 77.6712L308.115 77.7986ZM319.622 66.8193C319.622 68.3545 318.789 70.0051 317.159 71.4096C315.487 72.8497 313.553 73.5205 312.329 73.5205V81.9493C315.976 81.9493 319.796 80.2631 322.66 77.7958C325.565 75.293 328.051 71.4858 328.051 66.8193H319.622ZM311.831 55.726C314.942 57.0167 316.773 58.4548 317.872 60.0225C318.952 61.5625 319.622 63.6522 319.622 66.8193H328.051C328.051 62.4244 327.102 58.5047 324.774 55.1841C322.465 51.891 319.101 49.6171 315.061 47.9407L311.831 55.726ZM310.294 42.0915C309.96 45.0278 309.607 48.1312 309.256 51.3803L317.636 52.2863C317.984 49.0641 318.335 45.9832 318.669 43.0442L310.294 42.0915ZM310.292 42.1123L310.292 42.1165L318.672 43.0192L318.672 43.015L310.292 42.1123ZM310.31 41.9663L310.31 41.9676L318.654 43.1596L318.654 43.1583L310.31 41.9663ZM311.369 11.8096C311.654 12.3607 311.97 13.4014 312.149 15.184C312.325 16.9237 312.347 19.1072 312.23 21.771C311.995 27.1183 311.226 33.8992 310.295 42.086L318.67 43.0387C319.589 34.9609 320.4 27.8467 320.651 22.1409C320.777 19.2781 320.768 16.6455 320.536 14.3386C320.307 12.0746 319.838 9.83813 318.858 7.94065L311.369 11.8096ZM298.007 13.7932C300.762 10.2416 303.879 9.02635 306.259 9.00571C308.68 8.9847 310.507 10.1406 311.369 11.8097L318.858 7.94058C316.379 3.14341 311.428 0.531716 306.186 0.577191C300.902 0.623024 295.472 3.30838 291.347 8.62693L298.007 13.7932ZM296.554 56.1354C296.313 47.6292 296.338 37.1884 296.698 28.5462C296.879 24.2164 297.141 20.4102 297.484 17.551C297.656 16.114 297.839 15.0013 298.02 14.2172C298.254 13.2047 298.355 13.344 298.007 13.7932L291.347 8.62692C290.439 9.79732 290.032 11.3481 289.807 12.3209C289.53 13.522 289.304 14.9681 289.115 16.5469C288.734 19.7192 288.461 23.7721 288.276 28.195C287.907 37.0581 287.883 47.6972 288.128 56.3738L296.554 56.1354ZM272.67 61.9074C274.392 64.2692 277.108 65.1019 279.179 65.3814C281.379 65.6783 283.753 65.486 285.903 65.0263C288.053 64.5664 290.253 63.7801 292.074 62.6788C293.69 61.7016 295.969 59.8893 296.489 57.0012L288.193 55.508C288.338 54.7054 288.76 54.8324 287.712 55.4662C286.87 55.9759 285.597 56.4721 284.14 56.7838C282.682 57.0957 281.312 57.1641 280.306 57.0283C279.171 56.8751 279.218 56.5816 279.48 56.9414L272.67 61.9074ZM275.698 14.8285C275.459 34.2175 275.265 44.5484 271.974 58.4538L280.176 60.3951C283.71 45.4634 283.888 34.2514 284.126 14.9322L275.698 14.8285ZM258.89 18.4253C261.181 13.9747 265.434 12.5466 269.629 12.914C271.745 13.0992 273.572 13.7404 274.748 14.4693C276.158 15.3426 275.698 15.6619 275.698 14.8803H284.126C284.126 11.1986 281.393 8.67056 279.187 7.30408C276.748 5.79319 273.618 4.80214 270.364 4.51726C263.821 3.94437 255.69 6.22468 251.396 14.5683L258.89 18.4253ZM221.743 55.0075C223.042 56.2162 224.559 58.9459 225.495 61.9168C225.943 63.3399 226.171 64.5528 226.216 65.3731C226.238 65.7881 226.205 65.9512 226.21 65.9257C226.215 65.9035 226.245 65.7716 226.34 65.5761C226.438 65.3775 226.625 65.07 226.96 64.7635L232.654 70.9785C233.802 69.9262 234.254 68.6089 234.449 67.7057C234.655 66.7521 234.679 65.7818 234.632 64.9162C234.538 63.1752 234.118 61.2376 233.534 59.3846C232.406 55.8031 230.323 51.4778 227.485 48.8368L221.743 55.0075ZM188.147 76.2584C189.431 68.0588 196.853 62.116 205.724 58.5524C210.027 56.824 214.317 55.8133 217.659 55.4308C219.34 55.2385 220.665 55.2184 221.568 55.3007C222.021 55.342 222.27 55.4005 222.361 55.4282C222.502 55.4713 222.171 55.4053 221.744 55.0089L227.483 48.8354C226.599 48.0131 225.575 47.5962 224.819 47.3656C224.011 47.1196 223.158 46.9818 222.333 46.9066C220.679 46.7561 218.746 46.8226 216.701 47.0566C212.594 47.5268 207.57 48.7275 202.582 50.731C192.874 54.631 181.812 62.2335 179.819 74.9536L188.147 76.2584ZM197.467 132.126C192.188 127.15 188.821 119.602 187.31 109.888C185.801 100.191 186.201 88.6767 188.147 76.2582L179.819 74.9537C177.79 87.9059 177.296 100.349 178.981 111.184C180.664 122.002 184.581 131.562 191.685 138.259L197.467 132.126ZM237.139 114.948C235.72 123.001 228.313 129.476 219.078 132.793C214.565 134.413 209.942 135.14 205.979 134.948C201.937 134.752 199.071 133.638 197.467 132.126L191.685 138.259C195.301 141.667 200.435 143.118 205.571 143.367C210.785 143.619 216.515 142.669 221.927 140.725C232.541 136.914 243.272 128.712 245.44 116.411L237.139 114.948ZM226.608 107.382C227.02 107.382 227.929 107.569 229.279 108.24C230.56 108.876 231.947 109.803 233.226 110.887C234.512 111.976 235.573 113.125 236.276 114.145C237.054 115.274 237.075 115.778 237.075 115.68H245.504C245.504 113.246 244.357 111.018 243.216 109.362C242 107.598 240.392 105.911 238.675 104.456C236.952 102.996 235.002 101.671 233.029 100.691C231.126 99.7457 228.866 98.9527 226.608 98.9527V107.382ZM227.504 109.035C228.301 107.947 229.11 106.843 229.966 105.713L223.25 100.621C222.344 101.815 221.496 102.973 220.704 104.055L227.504 109.035ZM227.547 108.976L227.547 108.975L220.661 104.115L220.661 104.115L227.547 108.976ZM227.533 108.996L227.533 108.995L220.674 104.096L220.674 104.096L227.533 108.996ZM227.536 108.991L227.537 108.99L220.67 104.102L220.669 104.103L227.536 108.991ZM227.51 109.027L227.511 109.026L220.694 104.068L220.693 104.069L227.51 109.027ZM209.258 122.146C213.751 122.146 217.223 120.4 220.118 117.844C222.832 115.449 225.197 112.185 227.502 109.038L220.702 104.058C218.231 107.431 216.428 109.859 214.54 111.525C212.833 113.032 211.271 113.717 209.258 113.717V122.146ZM200.794 80.2787C197.385 87.325 196.735 97.1918 197.766 105.102C198.287 109.095 199.28 112.962 200.826 115.965C202.243 118.716 204.905 122.146 209.258 122.146V113.717C209.898 113.717 209.389 114.182 208.32 112.106C207.381 110.282 206.574 107.462 206.124 104.012C205.214 97.035 205.941 88.9929 208.381 83.9494L200.794 80.2787ZM229.683 63.6584C223.334 63.8446 217.668 64.259 212.797 66.6664C207.696 69.187 204.043 73.5623 200.794 80.2786L208.381 83.9495C211.181 78.1627 213.735 75.6042 216.531 74.223C219.555 72.7286 223.475 72.2729 229.93 72.0836L229.683 63.6584ZM77.6575 62.3801C81.9888 57.6262 84.9286 53.4562 86.9243 48.7812C88.9084 44.1334 89.8448 39.2489 90.529 33.2762L82.1549 32.317C81.5051 37.9894 80.6836 41.9315 79.1723 45.4719C77.6726 48.9851 75.3795 52.3651 71.4269 56.7033L77.6575 62.3801ZM33.6904 76.4486C34.4737 68.7107 39.8739 63.5252 47.6303 61.1338C55.4853 58.712 65.1103 59.4488 72.6221 63.2933L76.4622 55.7901C66.957 50.9253 55.0599 50.0228 45.1469 53.0791C35.1352 56.1659 26.5216 63.5762 25.3044 75.5996L33.6904 76.4486ZM42.5102 107.845C39.8478 107.845 38.2017 107.039 37.0302 105.883C35.75 104.62 34.6854 102.583 33.9638 99.5958C32.4997 93.5348 32.8076 85.1687 33.6904 76.4486L25.3044 75.5996C24.4207 84.3287 23.9361 93.9804 25.7706 101.575C26.6984 105.416 28.3058 109.116 31.1101 111.883C34.0231 114.757 37.8738 116.274 42.5102 116.274V107.845ZM53.3107 97.0449C53.3107 99.9133 51.7673 102.591 49.3073 104.7C46.7553 106.889 43.9382 107.845 42.5102 107.845V116.274C46.5043 116.274 51.1947 114.186 54.7945 111.098C58.4865 107.932 61.7395 103.102 61.7395 97.0449H53.3107ZM36.6151 89.1721C44.3257 95.2507 48.6898 97.9411 55.9097 100.937L59.1405 93.1524C52.8096 90.525 49.1088 88.2883 41.8334 82.5528L36.6151 89.1721ZM43.686 66.1139C40.7462 68.5478 38.5261 71.08 37.0865 74.4203C35.688 77.6653 35.1825 81.3206 35.013 85.6994L43.4355 86.0254C43.5911 82.0067 44.0415 79.579 44.8271 77.7563C45.5715 76.0288 46.7636 74.5086 49.0613 72.6063L43.686 66.1139ZM85.8436 87.2069C85.8436 84.9973 84.5788 83.2323 83.7341 82.2244C82.7431 81.0418 81.4432 79.8822 80.0406 78.7935C77.2128 76.5986 73.4594 74.3027 69.5001 72.2548C65.528 70.2002 61.2075 68.3222 57.2011 67.0108C53.3465 65.7492 49.2447 64.8273 45.9415 65.1679L46.8058 73.5523C48.2525 73.4031 50.9326 73.8279 54.5791 75.0215C58.0737 76.1653 61.9734 77.8512 65.6277 79.7414C69.2947 81.6382 72.574 83.668 74.8723 85.4519C76.0328 86.3526 76.8192 87.0957 77.2738 87.6382C77.8748 88.3553 77.4148 88.1377 77.4148 87.2069H85.8436ZM57.52 134.654C63.2124 132.484 70.2308 126.723 75.7878 118.725C81.4229 110.615 85.8436 99.8047 85.8436 87.2069H77.4148C77.4148 97.7936 73.7007 106.957 68.8659 113.916C63.9529 120.986 58.1661 125.387 54.518 126.778L57.52 134.654ZM5.27353 101.027C5.73242 110.768 11.4296 121.837 20.5042 129.14C29.7781 136.603 42.7722 140.275 57.52 134.654L54.518 126.778C42.8603 131.221 32.9829 128.363 25.7886 122.573C18.3948 116.623 14.0268 107.717 13.693 100.631L5.27353 101.027ZM24.1828 37.8771C11.8728 48.5934 3.91597 72.211 5.27353 101.027L13.693 100.631C12.3898 72.9673 20.2169 52.5047 29.7171 44.2345L24.1828 37.8771ZM87.9772 28.9124C76.2105 23.9585 64.8516 22.1349 54.0423 23.6507C43.2155 25.1689 33.2338 29.997 24.1826 37.8773L29.7173 44.2343C37.7033 37.2815 46.2079 33.2606 55.2128 31.9978C64.2354 30.7326 74.0538 32.1959 84.7066 36.6809L87.9772 28.9124ZM356.722 63.3648C354.286 61.5948 351.284 60.993 348.553 60.9604C345.768 60.9271 342.859 61.4756 340.216 62.422C337.585 63.3636 334.997 64.7781 332.973 66.6516C330.967 68.5077 329.193 71.1355 329.077 74.4148L337.501 74.7127C337.511 74.4416 337.678 73.7817 338.697 72.8381C339.698 71.9119 341.221 71.0147 343.056 70.3577C344.878 69.7056 346.791 69.3687 348.452 69.3886C350.168 69.4091 351.238 69.799 351.769 70.1845L356.722 63.3648ZM358.123 131.481C358.314 131.033 358.39 130.632 358.406 130.551C358.439 130.387 358.463 130.232 358.48 130.112C358.514 129.867 358.543 129.588 358.569 129.305C358.623 128.729 358.678 127.968 358.734 127.068C358.847 125.26 358.971 122.776 359.093 119.852C359.338 114 359.58 106.316 359.717 98.6111C359.853 90.9182 359.885 83.1509 359.707 77.154C359.618 74.1696 359.475 71.5339 359.252 69.5361C359.142 68.5521 358.999 67.5961 358.798 66.7844C358.699 66.384 358.555 65.8943 358.337 65.4061C358.169 65.0317 357.716 64.0866 356.722 63.3648L351.769 70.1845C350.948 69.5881 350.658 68.8811 350.644 68.8503C350.579 68.7057 350.58 68.6651 350.617 68.8123C350.687 69.0959 350.781 69.6289 350.875 70.4712C351.06 72.126 351.195 74.4918 351.282 77.4048C351.454 83.2029 351.425 90.8148 351.289 98.4618C351.154 106.097 350.914 113.714 350.672 119.5C350.551 122.396 350.43 124.816 350.322 126.543C350.268 127.411 350.218 128.075 350.177 128.526C350.155 128.757 350.139 128.892 350.131 128.953C350.126 128.987 350.129 128.959 350.142 128.894C350.149 128.86 350.164 128.789 350.189 128.694C350.21 128.618 350.264 128.422 350.368 128.178L358.123 131.481ZM326.329 140.887C328.42 144.4 331.715 146.05 335.193 146.303C338.457 146.539 341.784 145.564 344.659 144.2C347.586 142.812 350.386 140.862 352.695 138.72C354.964 136.618 357.006 134.103 358.123 131.481L350.368 128.177C349.881 129.32 348.737 130.896 346.965 132.539C345.235 134.143 343.14 135.592 341.047 136.585C338.902 137.602 337.083 137.989 335.803 137.896C334.738 137.819 334.091 137.448 333.572 136.576L326.329 140.887ZM327.473 95.5717C326.691 104.621 325.822 114.665 325.368 122.811C325.141 126.877 325.012 130.553 325.056 133.435C325.079 134.87 325.144 136.195 325.281 137.313C325.392 138.226 325.616 139.688 326.329 140.886L333.572 136.576C333.854 137.049 333.758 137.196 333.648 136.292C333.563 135.594 333.504 134.602 333.484 133.305C333.444 130.725 333.56 127.284 333.783 123.281C334.229 115.289 335.085 105.386 335.871 96.2977L327.473 95.5717ZM327.488 95.4268L327.488 95.4276L335.856 96.4419L335.856 96.4411L327.488 95.4268ZM327.465 95.6813L327.465 95.6828L335.879 96.1851L335.879 96.1836L327.465 95.6813ZM329.077 74.4148C328.923 78.7919 328.245 86.648 327.474 95.5694L335.871 96.2955C336.632 87.4978 337.337 79.3622 337.501 74.7126L329.077 74.4148ZM341.207 54.9556C341.207 55.5296 341.107 55.5761 341.211 55.3746C341.269 55.2643 341.366 55.1241 341.509 54.9885C341.652 54.8543 341.794 54.768 341.901 54.7178C342.088 54.6311 342.099 54.684 341.755 54.6904C341.422 54.6966 340.949 54.6572 340.291 54.5515L338.955 62.8737C340.502 63.1222 343.121 63.448 345.461 62.3583C346.795 61.7366 347.938 60.7071 348.688 59.2654C349.398 57.9024 349.636 56.4054 349.636 54.9556H341.207ZM340.136 54.7395C340.445 55.0671 340.704 55.3414 340.935 55.5957C341.166 55.8507 341.324 56.0371 341.431 56.1748C341.547 56.3248 341.532 56.329 341.476 56.2174C341.444 56.1535 341.382 56.0186 341.325 55.8217C341.268 55.6237 341.207 55.3271 341.207 54.9556H349.636C349.636 53.8621 349.283 52.9828 349.012 52.4418C348.729 51.876 348.386 51.3901 348.098 51.0174C347.538 50.2943 346.819 49.5398 346.261 48.95L340.136 54.7395ZM334.932 45.0456C334.932 47.5393 336.03 49.6126 337.021 51.056C338.026 52.5206 339.275 53.8289 340.136 54.7395L346.261 48.95C345.317 47.9509 344.54 47.1155 343.97 46.2859C343.7 45.8917 343.537 45.583 343.447 45.3534C343.359 45.1311 343.361 45.0391 343.361 45.0456H334.932ZM344.352 30.9942C341.183 31.8258 338.607 33.5349 336.953 36.2925C335.396 38.8875 334.932 41.9605 334.932 45.0456H343.361C343.361 42.669 343.745 41.3552 344.181 40.6287C344.519 40.0647 345.081 39.5172 346.491 39.147L344.352 30.9942ZM354.313 46.9821C356.528 45.4041 357.124 42.9536 357.112 41.1223C357.1 39.2536 356.5 37.3854 355.564 35.8112C353.691 32.6581 349.67 29.5985 344.352 30.9942L346.491 39.147C346.949 39.0267 347.213 39.1001 347.423 39.2071C347.701 39.3486 348.04 39.6481 348.318 40.117C348.608 40.6039 348.683 41.0211 348.684 41.1761C348.685 41.3685 348.632 40.6803 349.422 40.1171L354.313 46.9821ZM343.84 43.7978C343.909 44.0278 344.095 44.6784 344.417 45.3413C344.738 46.0006 345.362 47.0429 346.54 47.8143C349.426 49.7042 352.451 48.3087 354.313 46.9821L349.422 40.1171C348.918 40.4759 348.871 40.3951 349.194 40.3319C349.383 40.295 349.691 40.2667 350.074 40.3335C350.466 40.402 350.838 40.5532 351.158 40.7633C351.76 41.1576 351.98 41.6195 351.999 41.6579C352.019 41.6997 352.007 41.6888 351.914 41.3793L343.84 43.7978ZM348.966 46.005C348.256 46.2529 347.42 46.3247 346.567 46.1046C345.759 45.896 345.183 45.4901 344.828 45.1685C344.208 44.606 343.945 44.0096 343.906 43.9255C343.797 43.6892 343.748 43.4912 343.84 43.7976L351.914 41.3795C351.9 41.3311 351.761 40.8311 351.558 40.3919C351.473 40.2064 351.161 39.5332 350.49 38.9246C350.11 38.58 349.508 38.1587 348.673 37.9431C347.792 37.7159 346.928 37.789 346.188 38.0473L348.966 46.005ZM349.44 47.1362C349.496 47.3134 349.497 47.4008 349.493 47.3556C349.491 47.3207 349.488 47.2297 349.5 47.0825C349.524 46.7801 349.596 46.3987 349.713 46.0238C349.835 45.6336 349.958 45.4018 350.007 45.3286C350.027 45.2974 349.985 45.3705 349.856 45.4895C349.729 45.6063 349.438 45.8403 348.966 46.0051L346.188 38.0472C344.511 38.6327 343.496 39.8893 342.965 40.6964C342.372 41.5976 341.953 42.5966 341.667 43.5118C341.377 44.4424 341.176 45.4409 341.098 46.4113C341.026 47.3161 341.035 48.5072 341.402 49.6726L349.44 47.1362ZM357.271 47.6985C355.573 48.0639 353.286 47.935 351.329 47.4032C350.368 47.1421 349.675 46.8335 349.274 46.5849C348.753 46.2609 349.192 46.3481 349.44 47.1362L341.402 49.6725C342.053 51.7363 343.663 53.0221 344.827 53.7449C346.112 54.5432 347.619 55.1297 349.119 55.5372C352.083 56.3426 355.762 56.6452 359.044 55.9386L357.271 47.6985ZM357.684 35.4045C358.317 37.1416 358.436 40.5599 357.814 43.8961C357.516 45.4991 357.1 46.7766 356.692 47.5843C356.142 48.6744 356.139 47.942 357.271 47.6985L359.044 55.9386C361.918 55.32 363.473 52.8541 364.216 51.3834C365.101 49.6304 365.714 47.5198 366.101 45.4386C366.852 41.4063 366.971 36.2712 365.603 32.5184L357.684 35.4045ZM344.671 26.5756C347.935 25.9853 350.526 26.7276 352.594 28.2102C354.748 29.7535 356.537 32.2589 357.684 35.4045L365.603 32.5184C364.014 28.1583 361.333 24.103 357.504 21.3592C353.591 18.5545 348.689 17.2832 343.171 18.2814L344.671 26.5756ZM333.768 38.2848C334.06 37.1457 335.603 34.3116 338.097 31.4635C339.279 30.1131 340.54 28.9183 341.761 28.0318C343.018 27.1192 344.009 26.6954 344.671 26.5756L343.171 18.2814C340.796 18.7108 338.623 19.8935 336.808 21.2117C334.957 22.556 333.239 24.2162 331.755 25.9116C328.915 29.1551 326.377 33.1762 325.604 36.1895L333.768 38.2848ZM340.291 54.5515C338.097 54.1992 336.083 52.0233 334.752 47.7236C334.14 45.7444 333.796 43.6558 333.669 41.8417C333.535 39.9299 333.666 38.6842 333.768 38.2848L325.604 36.1895C325.172 37.8716 325.102 40.1624 325.261 42.4314C325.427 44.7983 325.871 47.535 326.7 50.2155C328.254 55.2352 331.742 61.7154 338.955 62.8737L340.291 54.5515ZM169.331 90.2236C169.331 97.1147 169.326 103.44 168.695 109.173C168.065 114.893 166.84 119.692 164.602 123.576C160.394 130.878 151.681 136.415 131.212 136.415V144.843C153.076 144.843 165.53 138.849 171.905 127.784C174.959 122.484 176.38 116.391 177.073 110.096C177.765 103.815 177.76 97.0038 177.76 90.2236H169.331ZM137.214 41.2209C148.275 41.2209 156.035 46.0376 161.234 54.3123C166.587 62.8311 169.331 75.2375 169.331 90.2236H177.76C177.76 74.4229 174.902 60.2207 168.371 49.8277C161.687 39.1905 151.281 32.7921 137.214 32.7921V41.2209ZM92.0131 91.2708C95.2849 78.5156 101.088 65.8227 108.927 56.412C116.753 47.0169 126.297 41.2209 137.214 41.2209V32.7921C123.004 32.7921 111.292 40.4041 102.451 51.0173C93.6233 61.615 87.3489 75.5307 83.8486 89.1765L92.0131 91.2708ZM131.212 136.415C119.776 136.415 108.199 131.525 100.397 123.395C92.6948 115.368 88.6874 104.236 92.0131 91.2708L83.8486 89.1765C79.7278 105.242 84.7972 119.312 94.3154 129.231C103.734 139.046 117.521 144.843 131.212 144.843V136.415ZM112.356 67.205C114.006 66.5144 117.224 65.7428 121.446 65.1362C125.568 64.544 130.324 64.1535 134.868 64.0983C139.457 64.0425 143.615 64.3322 146.629 65.0045C148.147 65.3433 149.147 65.7308 149.721 66.0674C150.31 66.4131 150.018 66.4377 149.874 65.9054L158.008 63.6967C157.354 61.2868 155.599 59.7435 153.986 58.7972C152.358 57.8419 150.415 57.2133 148.464 56.7779C144.537 55.9019 139.643 55.6108 134.766 55.67C129.844 55.7299 124.721 56.1502 120.247 56.793C115.874 57.4213 111.781 58.3087 109.102 59.4294L112.356 67.205ZM114.669 95.5743C113.15 91.5677 112.137 84.1357 112.07 77.2807C112.037 73.8999 112.239 70.9133 112.639 68.7726C112.843 67.6876 113.064 67.0035 113.23 66.6447C113.46 66.1474 113.319 66.8021 112.356 67.2051L109.102 59.4293C107.113 60.2617 106.091 62.0003 105.579 63.1075C105.003 64.3533 104.622 65.7946 104.354 67.222C103.815 70.106 103.606 73.6923 103.642 77.3629C103.713 84.6108 104.753 93.1957 106.788 98.5632L114.669 95.5743ZM150.538 94.5824C150.824 94.1913 150.852 94.4393 149.597 94.864C148.523 95.2275 147 95.5578 145.07 95.8184C141.23 96.3369 136.331 96.5092 131.408 96.3899C126.492 96.2708 121.726 95.8654 118.173 95.2848C116.375 94.9912 115.034 94.6757 114.181 94.385C113.745 94.2363 113.591 94.1455 113.61 94.1568C113.625 94.1664 113.764 94.2515 113.948 94.4354C114.128 94.6164 114.447 94.9877 114.669 95.5743L106.788 98.5632C107.377 100.115 108.585 100.962 109.194 101.336C109.921 101.784 110.725 102.112 111.462 102.363C112.954 102.872 114.818 103.277 116.814 103.603C120.846 104.262 126.014 104.691 131.204 104.816C136.388 104.942 141.766 104.77 146.198 104.171C148.403 103.874 150.513 103.452 152.299 102.848C153.904 102.305 156.018 101.369 157.344 99.5551L150.538 94.5824ZM149.874 65.9054C150.372 67.7391 151.24 74.2132 151.521 81.0302C151.659 84.3794 151.646 87.6259 151.406 90.2595C151.286 91.5778 151.117 92.6537 150.914 93.4686C150.695 94.3507 150.508 94.6231 150.538 94.5824L157.344 99.5551C158.254 98.3089 158.768 96.813 159.093 95.5055C159.436 94.1307 159.657 92.5957 159.8 91.0233C160.087 87.8755 160.088 84.2215 159.943 80.6832C159.656 73.7251 158.763 66.4763 158.008 63.6967L149.874 65.9054ZM112.569 127.116C119.118 127.116 125.597 122.454 125.597 115.37H117.168C117.168 116.605 115.755 118.687 112.569 118.687V127.116ZM99.5409 115.37C99.5409 122.454 106.02 127.116 112.569 127.116V118.687C109.383 118.687 107.97 116.605 107.97 115.37H99.5409ZM112.569 103.624C106.02 103.624 99.5409 108.286 99.5409 115.37H107.97C107.97 114.135 109.383 112.053 112.569 112.053V103.624ZM125.597 115.37C125.597 108.286 119.118 103.624 112.569 103.624V112.053C115.755 112.053 117.168 114.135 117.168 115.37H125.597ZM133.65 120.965C133.65 123.272 131.98 124.615 130.546 124.615V133.044C137.196 133.044 142.079 127.345 142.079 120.965H133.65ZM130.546 117.315C131.98 117.315 133.65 118.658 133.65 120.965H142.079C142.079 114.585 137.196 108.886 130.546 108.886V117.315ZM127.443 120.965C127.443 118.658 129.113 117.315 130.546 117.315V108.886C123.897 108.886 119.014 114.585 119.014 120.965H127.443ZM130.546 124.615C129.113 124.615 127.443 123.272 127.443 120.965H119.014C119.014 127.345 123.897 133.044 130.546 133.044V124.615ZM150.685 130.27C156.558 130.27 162.116 125.9 162.116 119.578H153.688C153.688 120.411 152.783 121.841 150.685 121.841V130.27ZM139.253 119.578C139.253 125.9 144.811 130.27 150.685 130.27V121.841C148.586 121.841 147.682 120.411 147.682 119.578H139.253ZM150.685 108.886C144.811 108.886 139.253 113.256 139.253 119.578H147.682C147.682 118.745 148.586 117.315 150.685 117.315V108.886ZM162.116 119.578C162.116 113.256 156.558 108.886 150.685 108.886V117.315C152.783 117.315 153.688 118.745 153.688 119.578H162.116Z" fill="#304700" mask="url(#path-3-outside-2_6382_4005)"/>
<ellipse cx="112.071" cy="115.291" rx="5" ry="4.5" fill="#C9EE6A"/>
<ellipse cx="130.547" cy="120.964" rx="7.31791" ry="7.86439" fill="#304700"/>
<ellipse cx="150.686" cy="119.577" rx="7.21742" ry="6.47768" fill="#304700"/>
<path d="M339.623 58.7126C342.713 59.2088 345.421 59.0032 345.421 54.9556C345.421 53.0659 339.146 49.2426 339.146 45.0456C339.146 39.5838 340.842 36.2723 345.421 35.0706C351.365 33.5108 354.716 41.5201 351.867 43.5496C347.813 46.4381 348.059 41.858 347.577 42.0262C345.973 42.5862 344.868 46.6512 345.421 48.4044C346.226 50.9557 353.177 52.8906 358.157 51.8185C361.643 51.0682 363.644 39.4513 361.643 33.9615C358.908 26.4558 352.703 20.84 343.921 22.4285C337.848 23.5268 330.752 33.0848 329.686 37.2371C328.617 41.4003 330.216 57.202 339.623 58.7126Z" fill="#C9EE6A"/>
</svg>
